<?xml version="1.0" encoding="UTF-8"?><svg id="Layer_2" xmlns="http://www.w3.org/2000/svg" viewBox="0 0 28.43 14.37"><defs><style>.cls-1{font-family:ChicAvenue, 'Chic Avenue';font-size:9.76px;}</style></defs><g id="Layer_1-2"><path d="M11.92,3.88c-.31,0-.6.08-.86.22-.82.31-1.56,1.13-2.08,1.87-.02.03-.02.07,0,.1.02.03.06.02.08,0,.38-.52.86-1.09,1.4-1.48-.45.51-.73,1.25-.73,2.06,0,1.53.99,2.77,2.2,2.77,1.21,0,2.2-1.24,2.2-2.77s-.99-2.77-2.2-2.77h0ZM11.92,9.28c-1.15,0-2.09-1.18-2.09-2.63,0-1.08.52-2.01,1.26-2.42.3-.11.61-.16.92-.1.76.14,1.28.82,1.49,1.36.4,1.03.06,2.29-.76,2.79-.36.22-.76.25-1.13.09-.37-.16-.68-.5-.85-.95-.16-.4-.18-.86-.06-1.28.12-.42.35-.76.67-.96.29-.18.61-.2.91-.07.3.13.54.4.68.76.12.32.14.69.05,1.03-.02.08-.05.16-.08.23.04-.15.07-.31.07-.48,0-.75-.49-1.37-1.08-1.37s-1.08.61-1.08,1.37.49,1.37,1.08,1.37c.21,0,.41-.08.58-.21,0,0,.02,0,.03,0,.28-.17.5-.48.6-.85.1-.38.08-.78-.06-1.14-.15-.39-.42-.69-.75-.83-.33-.14-.68-.12-1,.08-.35.21-.61.58-.73,1.04-.13.46-.1.95.07,1.39.19.48.51.85.91,1.02.17.07.35.11.52.11.24,0,.48-.07.7-.2.88-.54,1.24-1.88.81-2.98-.2-.51-.65-1.13-1.3-1.37.97.23,1.7,1.3,1.7,2.58,0,1.45-.94,2.63-2.09,2.63h0ZM11.92,7.87c-.54,0-.97-.55-.97-1.23s.44-1.23.97-1.23.97.55.97,1.23-.44,1.23-.97,1.23Z"/><path d="M16.86,5.41c-.31,0-.6.08-.86.22-.82.31-1.56,1.13-2.08,1.87-.02.03-.02.07,0,.1.02.03.06.02.08,0,.38-.52.86-1.09,1.4-1.48-.45.51-.73,1.25-.73,2.06,0,1.53.99,2.77,2.2,2.77,1.21,0,2.2-1.24,2.2-2.77s-.99-2.77-2.2-2.77h0ZM16.86,10.81c-1.15,0-2.09-1.18-2.09-2.63,0-1.08.52-2.01,1.26-2.42.3-.11.61-.16.92-.1.76.14,1.28.82,1.49,1.36.4,1.03.06,2.29-.76,2.79-.36.22-.76.25-1.13.09-.37-.16-.68-.5-.85-.95-.16-.4-.18-.86-.06-1.28.12-.42.35-.76.67-.96.29-.18.61-.2.91-.07.3.13.54.4.68.76.12.32.14.69.05,1.03-.02.08-.05.16-.08.23.04-.15.07-.31.07-.48,0-.75-.49-1.37-1.08-1.37s-1.08.61-1.08,1.37.49,1.37,1.08,1.37c.21,0,.41-.08.58-.21,0,0,.02,0,.03,0,.28-.17.5-.48.6-.85.1-.38.08-.78-.06-1.14-.15-.39-.42-.69-.75-.83-.33-.14-.68-.12-1,.08-.35.21-.61.58-.73,1.04-.13.46-.1.95.07,1.39.19.48.51.85.91,1.02.17.07.35.11.52.11.24,0,.48-.07.7-.2.88-.54,1.24-1.88.81-2.98-.2-.51-.65-1.13-1.3-1.37.97.23,1.7,1.3,1.7,2.58,0,1.45-.94,2.63-2.09,2.63h0ZM16.86,9.41c-.54,0-.97-.55-.97-1.23s.44-1.23.97-1.23.97.55.97,1.23-.44,1.23-.97,1.23Z"/><text class="cls-1" transform="translate(0 8.57) scale(.79 1)"><tspan x="0" y="0">Sp</tspan></text><text class="cls-1" transform="translate(19.08 11.02) scale(.79 1)"><tspan x="0" y="0">ler</tspan></text></g></svg>